<svg xmlns="http://www.w3.org/2000/svg" viewBox="0 0 109.4 836.65"><defs><style>.cls-1{fill:none;stroke:#ff2727;stroke-miterlimit:10;}.cls-2,.cls-3,.cls-4{fill:#ff2727;}.cls-3,.cls-4{writing-mode:tb;font-size:18.89px;font-family:NotoSansKR-Thin-KSCpc-EUC-H, Noto Sans KR;}.cls-3{text-orientation:sideways-right;glyph-orientation-vertical:90deg;}.cls-3,.cls-5{letter-spacing:0.01em;}.cls-4{text-orientation:upright;glyph-orientation-vertical:0deg;letter-spacing:0.01em;}</style></defs><g id="레이어_2" data-name="레이어 2"><g id="레이어_1-2" data-name="레이어 1"><path class="cls-1" d="M60,836.15H49.35A48.91,48.91,0,0,1,.5,787.3V49.35A48.91,48.91,0,0,1,49.35.5H60A48.92,48.92,0,0,1,108.9,49.35V787.3A48.91,48.91,0,0,1,60,836.15ZM49.35,6.5A42.9,42.9,0,0,0,6.5,49.35V787.3a42.9,42.9,0,0,0,42.85,42.85H60A42.9,42.9,0,0,0,102.9,787.3V49.35A42.9,42.9,0,0,0,60,6.5Z"/><polygon class="cls-2" points="30.16 66.62 18.52 65.72 30.16 64.81 31.06 53.18 31.97 64.81 43.6 65.71 31.97 66.62 31.07 78.26 30.16 66.62"/><polygon class="cls-2" points="72.93 127.91 61.3 127 72.93 126.1 73.83 114.46 74.74 126.1 86.38 127 74.74 127.91 73.84 139.54 72.93 127.91"/><polygon class="cls-2" points="72.93 314.57 61.3 313.67 72.93 312.76 73.83 301.13 74.74 312.76 86.38 313.66 74.74 314.57 73.84 326.21 72.93 314.57"/><polygon class="cls-2" points="72.93 520.24 61.3 519.34 72.93 518.43 73.83 506.8 74.74 518.43 86.38 519.33 74.74 520.24 73.84 531.88 72.93 520.24"/><polygon class="cls-2" points="72.93 706.9 61.3 706 72.93 705.1 73.83 693.46 74.74 705.1 86.38 706 74.74 706.9 73.84 718.54 72.93 706.9"/><polygon class="cls-2" points="30.16 223.58 18.52 222.68 30.16 221.77 31.06 210.14 31.97 221.77 43.6 222.68 31.97 223.58 31.07 235.22 30.16 223.58"/><polygon class="cls-2" points="30.16 465.98 18.52 465.07 30.16 464.17 31.06 452.53 31.97 464.17 43.6 465.07 31.97 465.98 31.07 477.61 30.16 465.98"/><polygon class="cls-2" points="30.16 750.65 18.52 749.75 30.16 748.84 31.06 737.21 31.97 748.84 43.6 749.75 31.97 750.65 31.07 762.29 30.16 750.65"/><text/><text class="cls-3" transform="translate(31.06 118.26)">MENU</text><text class="cls-3" transform="translate(73.84 52.17)">HOME</text><text class="cls-4" transform="translate(73.84 149.54)">꿈과<tspan class="cls-5" x="0" y="38.01"> </tspan><tspan x="0" y="42.28">현실의</tspan><tspan class="cls-5" x="0" y="99.3"> </tspan><tspan class="cls-5" x="0" y="103.57">경계</tspan></text><text class="cls-4" transform="translate(73.84 336.21)">사람과<tspan class="cls-5" x="0" y="57.02"> </tspan><tspan class="cls-5" x="0" y="61.29">사람의</tspan><tspan class="cls-5" x="0" y="118.31"> </tspan><tspan x="0" y="122.58">경계</tspan></text><text class="cls-4" transform="translate(73.84 541.88)">삶과<tspan class="cls-5" x="0" y="38.01"> </tspan><tspan x="0" y="42.28">죽음의</tspan><tspan class="cls-5" x="0" y="99.3"> </tspan><tspan class="cls-5" x="0" y="103.57">경계</tspan></text><text class="cls-4" transform="translate(31.06 275.22)">옳고그름의<tspan class="cls-5" x="0" y="95.03"> </tspan><tspan class="cls-5" x="0" y="99.3">경계</tspan></text><text class="cls-4" transform="translate(31.06 517.61)">사진전에<tspan class="cls-5" x="0" y="76.03"> </tspan><tspan x="0" y="80.29">모인</tspan><tspan class="cls-5" x="0" y="118.31"> </tspan><tspan x="0" y="122.58">사람들</tspan></text><text class="cls-3" transform="translate(73.84 728.54)">END</text></g></g></svg>